<mxfile host="app.diagrams.net" modified="2022-02-23T10:00:44.376Z" agent="5.0 (X11)" etag="Ag1ZIbRW7rXpyOrO9f2z" version="16.5.6" type="github">
  <diagram id="C5RBs43oDa-KdzZeNtuy" name="Page-1">
    <mxGraphModel dx="2426" dy="1355" grid="1" gridSize="10" guides="1" tooltips="1" connect="1" arrows="1" fold="1" page="1" pageScale="1" pageWidth="827" pageHeight="1169" math="0" shadow="0">
      <root>
        <mxCell id="WIyWlLk6GJQsqaUBKTNV-0" />
        <mxCell id="WIyWlLk6GJQsqaUBKTNV-1" parent="WIyWlLk6GJQsqaUBKTNV-0" />
        <mxCell id="nvOmrR5GIjtlNtDzd1EA-82" value="" style="group" parent="WIyWlLk6GJQsqaUBKTNV-1" vertex="1" connectable="0">
          <mxGeometry x="474.88" y="862.85" width="90.25" height="57.15" as="geometry" />
        </mxCell>
        <mxCell id="nvOmrR5GIjtlNtDzd1EA-83" value="" style="endArrow=none;dashed=1;html=1;dashPattern=1 3;strokeWidth=2;rounded=0;" parent="nvOmrR5GIjtlNtDzd1EA-82" edge="1">
          <mxGeometry width="50" height="50" relative="1" as="geometry">
            <mxPoint y="57.14857139286066" as="sourcePoint" />
            <mxPoint y="0.004285821417773114" as="targetPoint" />
          </mxGeometry>
        </mxCell>
        <mxCell id="nvOmrR5GIjtlNtDzd1EA-84" value="" style="endArrow=none;dashed=1;html=1;dashPattern=1 3;strokeWidth=2;rounded=0;" parent="nvOmrR5GIjtlNtDzd1EA-82" edge="1">
          <mxGeometry width="50" height="50" relative="1" as="geometry">
            <mxPoint x="30.33298755186722" y="57.144285571442886" as="sourcePoint" />
            <mxPoint x="30.33298755186722" as="targetPoint" />
          </mxGeometry>
        </mxCell>
        <mxCell id="nvOmrR5GIjtlNtDzd1EA-85" value="" style="endArrow=none;dashed=1;html=1;dashPattern=1 3;strokeWidth=2;rounded=0;" parent="nvOmrR5GIjtlNtDzd1EA-82" edge="1">
          <mxGeometry width="50" height="50" relative="1" as="geometry">
            <mxPoint x="59.91701244813278" y="57.14999999999999" as="sourcePoint" />
            <mxPoint x="59.91701244813278" y="0.005714428556992922" as="targetPoint" />
          </mxGeometry>
        </mxCell>
        <mxCell id="nvOmrR5GIjtlNtDzd1EA-86" value="" style="endArrow=none;dashed=1;html=1;dashPattern=1 3;strokeWidth=2;rounded=0;" parent="nvOmrR5GIjtlNtDzd1EA-82" edge="1">
          <mxGeometry width="50" height="50" relative="1" as="geometry">
            <mxPoint x="90.25" y="57.145714178582104" as="sourcePoint" />
            <mxPoint x="90.25" y="0.0014286071392198081" as="targetPoint" />
          </mxGeometry>
        </mxCell>
        <mxCell id="nvOmrR5GIjtlNtDzd1EA-77" value="" style="group" parent="WIyWlLk6GJQsqaUBKTNV-1" vertex="1" connectable="0">
          <mxGeometry x="474.88" y="772.85" width="90.25" height="57.15" as="geometry" />
        </mxCell>
        <mxCell id="nvOmrR5GIjtlNtDzd1EA-78" value="" style="endArrow=none;dashed=1;html=1;dashPattern=1 3;strokeWidth=2;rounded=0;" parent="nvOmrR5GIjtlNtDzd1EA-77" edge="1">
          <mxGeometry width="50" height="50" relative="1" as="geometry">
            <mxPoint y="57.14857139286066" as="sourcePoint" />
            <mxPoint y="0.004285821417773114" as="targetPoint" />
          </mxGeometry>
        </mxCell>
        <mxCell id="nvOmrR5GIjtlNtDzd1EA-79" value="" style="endArrow=none;dashed=1;html=1;dashPattern=1 3;strokeWidth=2;rounded=0;" parent="nvOmrR5GIjtlNtDzd1EA-77" edge="1">
          <mxGeometry width="50" height="50" relative="1" as="geometry">
            <mxPoint x="30.33298755186722" y="57.144285571442886" as="sourcePoint" />
            <mxPoint x="30.33298755186722" as="targetPoint" />
          </mxGeometry>
        </mxCell>
        <mxCell id="nvOmrR5GIjtlNtDzd1EA-80" value="" style="endArrow=none;dashed=1;html=1;dashPattern=1 3;strokeWidth=2;rounded=0;" parent="nvOmrR5GIjtlNtDzd1EA-77" edge="1">
          <mxGeometry width="50" height="50" relative="1" as="geometry">
            <mxPoint x="59.91701244813278" y="57.14999999999999" as="sourcePoint" />
            <mxPoint x="59.91701244813278" y="0.005714428556992922" as="targetPoint" />
          </mxGeometry>
        </mxCell>
        <mxCell id="nvOmrR5GIjtlNtDzd1EA-81" value="" style="endArrow=none;dashed=1;html=1;dashPattern=1 3;strokeWidth=2;rounded=0;" parent="nvOmrR5GIjtlNtDzd1EA-77" edge="1">
          <mxGeometry width="50" height="50" relative="1" as="geometry">
            <mxPoint x="90.25" y="57.145714178582104" as="sourcePoint" />
            <mxPoint x="90.25" y="0.0014286071392198081" as="targetPoint" />
          </mxGeometry>
        </mxCell>
        <mxCell id="nvOmrR5GIjtlNtDzd1EA-76" value="" style="group" parent="WIyWlLk6GJQsqaUBKTNV-1" vertex="1" connectable="0">
          <mxGeometry x="474.88" y="690" width="90.25" height="57.15" as="geometry" />
        </mxCell>
        <mxCell id="nvOmrR5GIjtlNtDzd1EA-70" value="" style="endArrow=none;dashed=1;html=1;dashPattern=1 3;strokeWidth=2;rounded=0;" parent="nvOmrR5GIjtlNtDzd1EA-76" edge="1">
          <mxGeometry width="50" height="50" relative="1" as="geometry">
            <mxPoint y="57.14857139286066" as="sourcePoint" />
            <mxPoint y="0.004285821417773114" as="targetPoint" />
          </mxGeometry>
        </mxCell>
        <mxCell id="nvOmrR5GIjtlNtDzd1EA-71" value="" style="endArrow=none;dashed=1;html=1;dashPattern=1 3;strokeWidth=2;rounded=0;" parent="nvOmrR5GIjtlNtDzd1EA-76" edge="1">
          <mxGeometry width="50" height="50" relative="1" as="geometry">
            <mxPoint x="30.33298755186722" y="57.144285571442886" as="sourcePoint" />
            <mxPoint x="30.33298755186722" as="targetPoint" />
          </mxGeometry>
        </mxCell>
        <mxCell id="nvOmrR5GIjtlNtDzd1EA-72" value="" style="endArrow=none;dashed=1;html=1;dashPattern=1 3;strokeWidth=2;rounded=0;" parent="nvOmrR5GIjtlNtDzd1EA-76" edge="1">
          <mxGeometry width="50" height="50" relative="1" as="geometry">
            <mxPoint x="59.91701244813278" y="57.14999999999999" as="sourcePoint" />
            <mxPoint x="59.91701244813278" y="0.005714428556992922" as="targetPoint" />
          </mxGeometry>
        </mxCell>
        <mxCell id="nvOmrR5GIjtlNtDzd1EA-73" value="" style="endArrow=none;dashed=1;html=1;dashPattern=1 3;strokeWidth=2;rounded=0;" parent="nvOmrR5GIjtlNtDzd1EA-76" edge="1">
          <mxGeometry width="50" height="50" relative="1" as="geometry">
            <mxPoint x="90.25" y="57.145714178582104" as="sourcePoint" />
            <mxPoint x="90.25" y="0.0014286071392198081" as="targetPoint" />
          </mxGeometry>
        </mxCell>
        <mxCell id="nvOmrR5GIjtlNtDzd1EA-47" value="&quot;n&quot; inputs" style="text;html=1;strokeColor=none;fillColor=none;align=center;verticalAlign=middle;whiteSpace=wrap;rounded=0;" parent="WIyWlLk6GJQsqaUBKTNV-1" vertex="1">
          <mxGeometry x="300" y="670" width="60" height="30" as="geometry" />
        </mxCell>
        <mxCell id="nvOmrR5GIjtlNtDzd1EA-48" value="&quot;m&quot; processing entities" style="text;html=1;align=center;verticalAlign=middle;resizable=0;points=[];autosize=1;strokeColor=none;fillColor=none;" parent="WIyWlLk6GJQsqaUBKTNV-1" vertex="1">
          <mxGeometry x="260" y="760" width="140" height="20" as="geometry" />
        </mxCell>
        <mxCell id="nvOmrR5GIjtlNtDzd1EA-49" value="&quot;k&quot; outputs" style="text;html=1;align=center;verticalAlign=middle;resizable=0;points=[];autosize=1;strokeColor=none;fillColor=none;" parent="WIyWlLk6GJQsqaUBKTNV-1" vertex="1">
          <mxGeometry x="295" y="840" width="70" height="20" as="geometry" />
        </mxCell>
        <mxCell id="nvOmrR5GIjtlNtDzd1EA-50" value="&quot;l&quot; processing cycles" style="text;html=1;align=center;verticalAlign=middle;resizable=0;points=[];autosize=1;strokeColor=none;fillColor=none;" parent="WIyWlLk6GJQsqaUBKTNV-1" vertex="1">
          <mxGeometry x="280" y="920" width="120" height="20" as="geometry" />
        </mxCell>
        <mxCell id="nvOmrR5GIjtlNtDzd1EA-51" value="INPUT" style="rounded=1;whiteSpace=wrap;html=1;fontSize=12;glass=0;strokeWidth=1;shadow=0;" parent="WIyWlLk6GJQsqaUBKTNV-1" vertex="1">
          <mxGeometry x="450" y="670" width="120" height="40" as="geometry" />
        </mxCell>
        <mxCell id="nvOmrR5GIjtlNtDzd1EA-53" value="INPUT" style="rounded=1;whiteSpace=wrap;html=1;fontSize=12;glass=0;strokeWidth=1;shadow=0;" parent="WIyWlLk6GJQsqaUBKTNV-1" vertex="1">
          <mxGeometry x="470" y="670" width="120" height="40" as="geometry" />
        </mxCell>
        <mxCell id="nvOmrR5GIjtlNtDzd1EA-54" value="INPUT" style="rounded=1;whiteSpace=wrap;html=1;fontSize=12;glass=0;strokeWidth=1;shadow=0;" parent="WIyWlLk6GJQsqaUBKTNV-1" vertex="1">
          <mxGeometry x="490" y="670" width="120" height="40" as="geometry" />
        </mxCell>
        <mxCell id="nvOmrR5GIjtlNtDzd1EA-55" value="INPUT" style="rounded=1;whiteSpace=wrap;html=1;fontSize=12;glass=0;strokeWidth=1;shadow=0;" parent="WIyWlLk6GJQsqaUBKTNV-1" vertex="1">
          <mxGeometry x="510" y="670" width="120" height="40" as="geometry" />
        </mxCell>
        <mxCell id="nvOmrR5GIjtlNtDzd1EA-57" value="" style="endArrow=none;dashed=1;html=1;dashPattern=1 3;strokeWidth=2;rounded=0;" parent="WIyWlLk6GJQsqaUBKTNV-1" edge="1">
          <mxGeometry width="50" height="50" relative="1" as="geometry">
            <mxPoint x="620" y="690" as="sourcePoint" />
            <mxPoint x="720" y="690" as="targetPoint" />
          </mxGeometry>
        </mxCell>
        <mxCell id="nvOmrR5GIjtlNtDzd1EA-58" value="Processing" style="rhombus;whiteSpace=wrap;html=1;shadow=0;fontFamily=Helvetica;fontSize=12;align=center;strokeWidth=1;spacing=6;spacingTop=-4;" parent="WIyWlLk6GJQsqaUBKTNV-1" vertex="1">
          <mxGeometry x="450" y="730" width="100" height="80" as="geometry" />
        </mxCell>
        <mxCell id="nvOmrR5GIjtlNtDzd1EA-59" value="Processing" style="rhombus;whiteSpace=wrap;html=1;shadow=0;fontFamily=Helvetica;fontSize=12;align=center;strokeWidth=1;spacing=6;spacingTop=-4;" parent="WIyWlLk6GJQsqaUBKTNV-1" vertex="1">
          <mxGeometry x="470" y="730" width="100" height="80" as="geometry" />
        </mxCell>
        <mxCell id="nvOmrR5GIjtlNtDzd1EA-60" value="Processing" style="rhombus;whiteSpace=wrap;html=1;shadow=0;fontFamily=Helvetica;fontSize=12;align=center;strokeWidth=1;spacing=6;spacingTop=-4;" parent="WIyWlLk6GJQsqaUBKTNV-1" vertex="1">
          <mxGeometry x="500" y="730" width="100" height="80" as="geometry" />
        </mxCell>
        <mxCell id="nvOmrR5GIjtlNtDzd1EA-61" value="Processing" style="rhombus;whiteSpace=wrap;html=1;shadow=0;fontFamily=Helvetica;fontSize=12;align=center;strokeWidth=1;spacing=6;spacingTop=-4;" parent="WIyWlLk6GJQsqaUBKTNV-1" vertex="1">
          <mxGeometry x="530" y="730" width="100" height="80" as="geometry" />
        </mxCell>
        <mxCell id="nvOmrR5GIjtlNtDzd1EA-63" value="" style="endArrow=none;dashed=1;html=1;dashPattern=1 3;strokeWidth=2;rounded=0;" parent="WIyWlLk6GJQsqaUBKTNV-1" edge="1">
          <mxGeometry width="50" height="50" relative="1" as="geometry">
            <mxPoint x="620" y="769.5" as="sourcePoint" />
            <mxPoint x="720" y="769.5" as="targetPoint" />
          </mxGeometry>
        </mxCell>
        <mxCell id="nvOmrR5GIjtlNtDzd1EA-64" value="OUTPUT" style="rounded=1;whiteSpace=wrap;html=1;fontSize=12;glass=0;strokeWidth=1;shadow=0;" parent="WIyWlLk6GJQsqaUBKTNV-1" vertex="1">
          <mxGeometry x="450" y="830" width="120" height="40" as="geometry" />
        </mxCell>
        <mxCell id="nvOmrR5GIjtlNtDzd1EA-65" value="OUTPUT" style="rounded=1;whiteSpace=wrap;html=1;fontSize=12;glass=0;strokeWidth=1;shadow=0;" parent="WIyWlLk6GJQsqaUBKTNV-1" vertex="1">
          <mxGeometry x="470" y="830" width="120" height="40" as="geometry" />
        </mxCell>
        <mxCell id="nvOmrR5GIjtlNtDzd1EA-66" value="OUTPUT" style="rounded=1;whiteSpace=wrap;html=1;fontSize=12;glass=0;strokeWidth=1;shadow=0;" parent="WIyWlLk6GJQsqaUBKTNV-1" vertex="1">
          <mxGeometry x="490" y="830" width="120" height="40" as="geometry" />
        </mxCell>
        <mxCell id="nvOmrR5GIjtlNtDzd1EA-67" value="OUTPUT" style="rounded=1;whiteSpace=wrap;html=1;fontSize=12;glass=0;strokeWidth=1;shadow=0;" parent="WIyWlLk6GJQsqaUBKTNV-1" vertex="1">
          <mxGeometry x="510" y="830" width="120" height="40" as="geometry" />
        </mxCell>
        <mxCell id="nvOmrR5GIjtlNtDzd1EA-68" value="" style="endArrow=none;dashed=1;html=1;dashPattern=1 3;strokeWidth=2;rounded=0;" parent="WIyWlLk6GJQsqaUBKTNV-1" edge="1">
          <mxGeometry width="50" height="50" relative="1" as="geometry">
            <mxPoint x="620" y="850" as="sourcePoint" />
            <mxPoint x="720" y="850" as="targetPoint" />
          </mxGeometry>
        </mxCell>
        <mxCell id="nvOmrR5GIjtlNtDzd1EA-69" value="" style="ellipse;shape=cloud;whiteSpace=wrap;html=1;" parent="WIyWlLk6GJQsqaUBKTNV-1" vertex="1">
          <mxGeometry x="310" y="860" width="520" height="385" as="geometry" />
        </mxCell>
        <mxCell id="nvOmrR5GIjtlNtDzd1EA-87" value="" style="group" parent="WIyWlLk6GJQsqaUBKTNV-1" vertex="1" connectable="0">
          <mxGeometry x="469.88" y="1052.85" width="90.25" height="57.15" as="geometry" />
        </mxCell>
        <mxCell id="nvOmrR5GIjtlNtDzd1EA-88" value="" style="endArrow=none;dashed=1;html=1;dashPattern=1 3;strokeWidth=2;rounded=0;" parent="nvOmrR5GIjtlNtDzd1EA-87" edge="1">
          <mxGeometry width="50" height="50" relative="1" as="geometry">
            <mxPoint y="57.14857139286066" as="sourcePoint" />
            <mxPoint y="0.004285821417773114" as="targetPoint" />
          </mxGeometry>
        </mxCell>
        <mxCell id="nvOmrR5GIjtlNtDzd1EA-89" value="" style="endArrow=none;dashed=1;html=1;dashPattern=1 3;strokeWidth=2;rounded=0;" parent="nvOmrR5GIjtlNtDzd1EA-87" edge="1">
          <mxGeometry width="50" height="50" relative="1" as="geometry">
            <mxPoint x="30.33298755186722" y="57.144285571442886" as="sourcePoint" />
            <mxPoint x="30.33298755186722" as="targetPoint" />
          </mxGeometry>
        </mxCell>
        <mxCell id="nvOmrR5GIjtlNtDzd1EA-90" value="" style="endArrow=none;dashed=1;html=1;dashPattern=1 3;strokeWidth=2;rounded=0;" parent="nvOmrR5GIjtlNtDzd1EA-87" edge="1">
          <mxGeometry width="50" height="50" relative="1" as="geometry">
            <mxPoint x="59.91701244813278" y="57.14999999999999" as="sourcePoint" />
            <mxPoint x="59.91701244813278" y="0.005714428556992922" as="targetPoint" />
          </mxGeometry>
        </mxCell>
        <mxCell id="nvOmrR5GIjtlNtDzd1EA-91" value="" style="endArrow=none;dashed=1;html=1;dashPattern=1 3;strokeWidth=2;rounded=0;" parent="nvOmrR5GIjtlNtDzd1EA-87" edge="1">
          <mxGeometry width="50" height="50" relative="1" as="geometry">
            <mxPoint x="90.25" y="57.145714178582104" as="sourcePoint" />
            <mxPoint x="90.25" y="0.0014286071392198081" as="targetPoint" />
          </mxGeometry>
        </mxCell>
        <mxCell id="nvOmrR5GIjtlNtDzd1EA-92" value="" style="group" parent="WIyWlLk6GJQsqaUBKTNV-1" vertex="1" connectable="0">
          <mxGeometry x="469.88" y="970" width="90.25" height="57.15" as="geometry" />
        </mxCell>
        <mxCell id="nvOmrR5GIjtlNtDzd1EA-93" value="" style="endArrow=none;dashed=1;html=1;dashPattern=1 3;strokeWidth=2;rounded=0;" parent="nvOmrR5GIjtlNtDzd1EA-92" edge="1">
          <mxGeometry width="50" height="50" relative="1" as="geometry">
            <mxPoint y="57.14857139286066" as="sourcePoint" />
            <mxPoint y="0.004285821417773114" as="targetPoint" />
          </mxGeometry>
        </mxCell>
        <mxCell id="nvOmrR5GIjtlNtDzd1EA-94" value="" style="endArrow=none;dashed=1;html=1;dashPattern=1 3;strokeWidth=2;rounded=0;" parent="nvOmrR5GIjtlNtDzd1EA-92" edge="1">
          <mxGeometry width="50" height="50" relative="1" as="geometry">
            <mxPoint x="30.33298755186722" y="57.144285571442886" as="sourcePoint" />
            <mxPoint x="30.33298755186722" as="targetPoint" />
          </mxGeometry>
        </mxCell>
        <mxCell id="nvOmrR5GIjtlNtDzd1EA-95" value="" style="endArrow=none;dashed=1;html=1;dashPattern=1 3;strokeWidth=2;rounded=0;" parent="nvOmrR5GIjtlNtDzd1EA-92" edge="1">
          <mxGeometry width="50" height="50" relative="1" as="geometry">
            <mxPoint x="59.91701244813278" y="57.14999999999999" as="sourcePoint" />
            <mxPoint x="59.91701244813278" y="0.005714428556992922" as="targetPoint" />
          </mxGeometry>
        </mxCell>
        <mxCell id="nvOmrR5GIjtlNtDzd1EA-96" value="" style="endArrow=none;dashed=1;html=1;dashPattern=1 3;strokeWidth=2;rounded=0;" parent="nvOmrR5GIjtlNtDzd1EA-92" edge="1">
          <mxGeometry width="50" height="50" relative="1" as="geometry">
            <mxPoint x="90.25" y="57.145714178582104" as="sourcePoint" />
            <mxPoint x="90.25" y="0.0014286071392198081" as="targetPoint" />
          </mxGeometry>
        </mxCell>
        <mxCell id="nvOmrR5GIjtlNtDzd1EA-97" value="INPUT" style="rounded=1;whiteSpace=wrap;html=1;fontSize=12;glass=0;strokeWidth=1;shadow=0;" parent="WIyWlLk6GJQsqaUBKTNV-1" vertex="1">
          <mxGeometry x="445" y="950" width="120" height="40" as="geometry" />
        </mxCell>
        <mxCell id="nvOmrR5GIjtlNtDzd1EA-98" value="INPUT" style="rounded=1;whiteSpace=wrap;html=1;fontSize=12;glass=0;strokeWidth=1;shadow=0;" parent="WIyWlLk6GJQsqaUBKTNV-1" vertex="1">
          <mxGeometry x="465" y="950" width="130" height="40" as="geometry" />
        </mxCell>
        <mxCell id="nvOmrR5GIjtlNtDzd1EA-99" value="INPUT" style="rounded=1;whiteSpace=wrap;html=1;fontSize=12;glass=0;strokeWidth=1;shadow=0;" parent="WIyWlLk6GJQsqaUBKTNV-1" vertex="1">
          <mxGeometry x="485" y="950" width="120" height="40" as="geometry" />
        </mxCell>
        <mxCell id="nvOmrR5GIjtlNtDzd1EA-100" value="INPUT" style="rounded=1;whiteSpace=wrap;html=1;fontSize=12;glass=0;strokeWidth=1;shadow=0;" parent="WIyWlLk6GJQsqaUBKTNV-1" vertex="1">
          <mxGeometry x="505" y="950" width="120" height="40" as="geometry" />
        </mxCell>
        <mxCell id="nvOmrR5GIjtlNtDzd1EA-101" value="" style="endArrow=none;dashed=1;html=1;dashPattern=1 3;strokeWidth=2;rounded=0;" parent="WIyWlLk6GJQsqaUBKTNV-1" edge="1">
          <mxGeometry width="50" height="50" relative="1" as="geometry">
            <mxPoint x="615" y="970" as="sourcePoint" />
            <mxPoint x="715" y="970" as="targetPoint" />
          </mxGeometry>
        </mxCell>
        <mxCell id="nvOmrR5GIjtlNtDzd1EA-102" value="Processing" style="rhombus;whiteSpace=wrap;html=1;shadow=0;fontFamily=Helvetica;fontSize=12;align=center;strokeWidth=1;spacing=6;spacingTop=-4;" parent="WIyWlLk6GJQsqaUBKTNV-1" vertex="1">
          <mxGeometry x="445" y="1010" width="100" height="80" as="geometry" />
        </mxCell>
        <mxCell id="nvOmrR5GIjtlNtDzd1EA-103" value="Processing" style="rhombus;whiteSpace=wrap;html=1;shadow=0;fontFamily=Helvetica;fontSize=12;align=center;strokeWidth=1;spacing=6;spacingTop=-4;" parent="WIyWlLk6GJQsqaUBKTNV-1" vertex="1">
          <mxGeometry x="465" y="1010" width="100" height="80" as="geometry" />
        </mxCell>
        <mxCell id="nvOmrR5GIjtlNtDzd1EA-104" value="Processing" style="rhombus;whiteSpace=wrap;html=1;shadow=0;fontFamily=Helvetica;fontSize=12;align=center;strokeWidth=1;spacing=6;spacingTop=-4;" parent="WIyWlLk6GJQsqaUBKTNV-1" vertex="1">
          <mxGeometry x="495" y="1010" width="100" height="80" as="geometry" />
        </mxCell>
        <mxCell id="nvOmrR5GIjtlNtDzd1EA-105" value="Processing" style="rhombus;whiteSpace=wrap;html=1;shadow=0;fontFamily=Helvetica;fontSize=12;align=center;strokeWidth=1;spacing=6;spacingTop=-4;" parent="WIyWlLk6GJQsqaUBKTNV-1" vertex="1">
          <mxGeometry x="525" y="1010" width="100" height="80" as="geometry" />
        </mxCell>
        <mxCell id="nvOmrR5GIjtlNtDzd1EA-106" value="" style="endArrow=none;dashed=1;html=1;dashPattern=1 3;strokeWidth=2;rounded=0;" parent="WIyWlLk6GJQsqaUBKTNV-1" edge="1">
          <mxGeometry width="50" height="50" relative="1" as="geometry">
            <mxPoint x="615" y="1049.5" as="sourcePoint" />
            <mxPoint x="715" y="1049.5" as="targetPoint" />
          </mxGeometry>
        </mxCell>
        <mxCell id="nvOmrR5GIjtlNtDzd1EA-107" value="OUTPUT" style="rounded=1;whiteSpace=wrap;html=1;fontSize=12;glass=0;strokeWidth=1;shadow=0;" parent="WIyWlLk6GJQsqaUBKTNV-1" vertex="1">
          <mxGeometry x="445" y="1110" width="120" height="40" as="geometry" />
        </mxCell>
        <mxCell id="nvOmrR5GIjtlNtDzd1EA-108" value="OUTPUT" style="rounded=1;whiteSpace=wrap;html=1;fontSize=12;glass=0;strokeWidth=1;shadow=0;" parent="WIyWlLk6GJQsqaUBKTNV-1" vertex="1">
          <mxGeometry x="465" y="1110" width="120" height="40" as="geometry" />
        </mxCell>
        <mxCell id="nvOmrR5GIjtlNtDzd1EA-109" value="OUTPUT" style="rounded=1;whiteSpace=wrap;html=1;fontSize=12;glass=0;strokeWidth=1;shadow=0;" parent="WIyWlLk6GJQsqaUBKTNV-1" vertex="1">
          <mxGeometry x="485" y="1110" width="120" height="40" as="geometry" />
        </mxCell>
        <mxCell id="nvOmrR5GIjtlNtDzd1EA-110" value="OUTPUT" style="rounded=1;whiteSpace=wrap;html=1;fontSize=12;glass=0;strokeWidth=1;shadow=0;" parent="WIyWlLk6GJQsqaUBKTNV-1" vertex="1">
          <mxGeometry x="505" y="1110" width="120" height="40" as="geometry" />
        </mxCell>
        <mxCell id="nvOmrR5GIjtlNtDzd1EA-111" value="" style="endArrow=none;dashed=1;html=1;dashPattern=1 3;strokeWidth=2;rounded=0;" parent="WIyWlLk6GJQsqaUBKTNV-1" edge="1">
          <mxGeometry width="50" height="50" relative="1" as="geometry">
            <mxPoint x="615" y="1130" as="sourcePoint" />
            <mxPoint x="715" y="1130" as="targetPoint" />
          </mxGeometry>
        </mxCell>
        <mxCell id="WIyWlLk6GJQsqaUBKTNV-3" value="INPUT" style="rounded=1;whiteSpace=wrap;html=1;fontSize=12;glass=0;strokeWidth=1;shadow=0;" parent="WIyWlLk6GJQsqaUBKTNV-1" vertex="1">
          <mxGeometry x="40" y="40" width="120" height="40" as="geometry" />
        </mxCell>
        <mxCell id="WIyWlLk6GJQsqaUBKTNV-6" value="Processing" style="rhombus;whiteSpace=wrap;html=1;shadow=0;fontFamily=Helvetica;fontSize=12;align=center;strokeWidth=1;spacing=6;spacingTop=-4;" parent="WIyWlLk6GJQsqaUBKTNV-1" vertex="1">
          <mxGeometry x="50" y="120" width="100" height="80" as="geometry" />
        </mxCell>
        <mxCell id="WIyWlLk6GJQsqaUBKTNV-2" value="" style="rounded=0;html=1;jettySize=auto;orthogonalLoop=1;fontSize=11;endArrow=block;endFill=0;endSize=8;strokeWidth=1;shadow=0;labelBackgroundColor=none;edgeStyle=orthogonalEdgeStyle;" parent="WIyWlLk6GJQsqaUBKTNV-1" source="WIyWlLk6GJQsqaUBKTNV-3" target="WIyWlLk6GJQsqaUBKTNV-6" edge="1">
          <mxGeometry relative="1" as="geometry" />
        </mxCell>
        <mxCell id="WIyWlLk6GJQsqaUBKTNV-7" value="OUTPUT" style="rounded=1;whiteSpace=wrap;html=1;fontSize=12;glass=0;strokeWidth=1;shadow=0;" parent="WIyWlLk6GJQsqaUBKTNV-1" vertex="1">
          <mxGeometry x="40" y="240" width="120" height="40" as="geometry" />
        </mxCell>
        <mxCell id="WIyWlLk6GJQsqaUBKTNV-5" value="" style="edgeStyle=orthogonalEdgeStyle;rounded=0;html=1;jettySize=auto;orthogonalLoop=1;fontSize=11;endArrow=block;endFill=0;endSize=8;strokeWidth=1;shadow=0;labelBackgroundColor=none;" parent="WIyWlLk6GJQsqaUBKTNV-1" source="WIyWlLk6GJQsqaUBKTNV-6" target="WIyWlLk6GJQsqaUBKTNV-7" edge="1">
          <mxGeometry y="10" relative="1" as="geometry">
            <mxPoint as="offset" />
          </mxGeometry>
        </mxCell>
        <mxCell id="nvOmrR5GIjtlNtDzd1EA-1" value="INPUT" style="rounded=1;whiteSpace=wrap;html=1;fontSize=12;glass=0;strokeWidth=1;shadow=0;" parent="WIyWlLk6GJQsqaUBKTNV-1" vertex="1">
          <mxGeometry x="200" y="40" width="120" height="40" as="geometry" />
        </mxCell>
        <mxCell id="nvOmrR5GIjtlNtDzd1EA-3" value="Processing" style="rhombus;whiteSpace=wrap;html=1;shadow=0;fontFamily=Helvetica;fontSize=12;align=center;strokeWidth=1;spacing=6;spacingTop=-4;" parent="WIyWlLk6GJQsqaUBKTNV-1" vertex="1">
          <mxGeometry x="210" y="120" width="100" height="80" as="geometry" />
        </mxCell>
        <mxCell id="nvOmrR5GIjtlNtDzd1EA-0" value="" style="rounded=0;html=1;jettySize=auto;orthogonalLoop=1;fontSize=11;endArrow=block;endFill=0;endSize=8;strokeWidth=1;shadow=0;labelBackgroundColor=none;edgeStyle=orthogonalEdgeStyle;" parent="WIyWlLk6GJQsqaUBKTNV-1" source="nvOmrR5GIjtlNtDzd1EA-1" target="nvOmrR5GIjtlNtDzd1EA-3" edge="1">
          <mxGeometry relative="1" as="geometry" />
        </mxCell>
        <mxCell id="nvOmrR5GIjtlNtDzd1EA-4" value="OUTPUT" style="rounded=1;whiteSpace=wrap;html=1;fontSize=12;glass=0;strokeWidth=1;shadow=0;" parent="WIyWlLk6GJQsqaUBKTNV-1" vertex="1">
          <mxGeometry x="200" y="240" width="120" height="40" as="geometry" />
        </mxCell>
        <mxCell id="nvOmrR5GIjtlNtDzd1EA-2" value="" style="edgeStyle=orthogonalEdgeStyle;rounded=0;html=1;jettySize=auto;orthogonalLoop=1;fontSize=11;endArrow=block;endFill=0;endSize=8;strokeWidth=1;shadow=0;labelBackgroundColor=none;" parent="WIyWlLk6GJQsqaUBKTNV-1" source="nvOmrR5GIjtlNtDzd1EA-3" target="nvOmrR5GIjtlNtDzd1EA-4" edge="1">
          <mxGeometry y="10" relative="1" as="geometry">
            <mxPoint as="offset" />
          </mxGeometry>
        </mxCell>
        <mxCell id="nvOmrR5GIjtlNtDzd1EA-5" value="Processing" style="rhombus;whiteSpace=wrap;html=1;shadow=0;fontFamily=Helvetica;fontSize=12;align=center;strokeWidth=1;spacing=6;spacingTop=-4;" parent="WIyWlLk6GJQsqaUBKTNV-1" vertex="1">
          <mxGeometry x="210" y="320" width="100" height="80" as="geometry" />
        </mxCell>
        <mxCell id="nvOmrR5GIjtlNtDzd1EA-6" value="" style="edgeStyle=orthogonalEdgeStyle;rounded=0;orthogonalLoop=1;jettySize=auto;html=1;" parent="WIyWlLk6GJQsqaUBKTNV-1" source="nvOmrR5GIjtlNtDzd1EA-4" target="nvOmrR5GIjtlNtDzd1EA-5" edge="1">
          <mxGeometry relative="1" as="geometry" />
        </mxCell>
        <mxCell id="nvOmrR5GIjtlNtDzd1EA-9" style="edgeStyle=orthogonalEdgeStyle;rounded=0;orthogonalLoop=1;jettySize=auto;html=1;exitX=0.5;exitY=1;exitDx=0;exitDy=0;" parent="WIyWlLk6GJQsqaUBKTNV-1" source="nvOmrR5GIjtlNtDzd1EA-7" edge="1">
          <mxGeometry relative="1" as="geometry">
            <mxPoint x="260" y="520" as="targetPoint" />
          </mxGeometry>
        </mxCell>
        <mxCell id="nvOmrR5GIjtlNtDzd1EA-7" value="OUTPUT" style="rounded=1;whiteSpace=wrap;html=1;fontSize=12;glass=0;strokeWidth=1;shadow=0;" parent="WIyWlLk6GJQsqaUBKTNV-1" vertex="1">
          <mxGeometry x="200" y="440" width="120" height="40" as="geometry" />
        </mxCell>
        <mxCell id="nvOmrR5GIjtlNtDzd1EA-8" value="" style="edgeStyle=orthogonalEdgeStyle;rounded=0;orthogonalLoop=1;jettySize=auto;html=1;" parent="WIyWlLk6GJQsqaUBKTNV-1" source="nvOmrR5GIjtlNtDzd1EA-5" target="nvOmrR5GIjtlNtDzd1EA-7" edge="1">
          <mxGeometry relative="1" as="geometry" />
        </mxCell>
        <mxCell id="nvOmrR5GIjtlNtDzd1EA-10" value="" style="endArrow=none;dashed=1;html=1;dashPattern=1 3;strokeWidth=2;rounded=0;" parent="WIyWlLk6GJQsqaUBKTNV-1" edge="1">
          <mxGeometry width="50" height="50" relative="1" as="geometry">
            <mxPoint x="260" y="600" as="sourcePoint" />
            <mxPoint x="260" y="520" as="targetPoint" />
          </mxGeometry>
        </mxCell>
        <mxCell id="nvOmrR5GIjtlNtDzd1EA-11" value="" style="rounded=0;html=1;jettySize=auto;orthogonalLoop=1;fontSize=11;endArrow=block;endFill=0;endSize=8;strokeWidth=1;shadow=0;labelBackgroundColor=none;edgeStyle=orthogonalEdgeStyle;" parent="WIyWlLk6GJQsqaUBKTNV-1" source="nvOmrR5GIjtlNtDzd1EA-12" edge="1">
          <mxGeometry relative="1" as="geometry">
            <mxPoint x="420" y="120" as="targetPoint" />
          </mxGeometry>
        </mxCell>
        <mxCell id="nvOmrR5GIjtlNtDzd1EA-12" value="INPUT" style="rounded=1;whiteSpace=wrap;html=1;fontSize=12;glass=0;strokeWidth=1;shadow=0;" parent="WIyWlLk6GJQsqaUBKTNV-1" vertex="1">
          <mxGeometry x="360" y="20" width="120" height="40" as="geometry" />
        </mxCell>
        <mxCell id="nvOmrR5GIjtlNtDzd1EA-14" value="Processing" style="rhombus;whiteSpace=wrap;html=1;shadow=0;fontFamily=Helvetica;fontSize=12;align=center;strokeWidth=1;spacing=6;spacingTop=-4;" parent="WIyWlLk6GJQsqaUBKTNV-1" vertex="1">
          <mxGeometry x="370" y="120" width="100" height="80" as="geometry" />
        </mxCell>
        <mxCell id="nvOmrR5GIjtlNtDzd1EA-15" value="OUTPUT" style="rounded=1;whiteSpace=wrap;html=1;fontSize=12;glass=0;strokeWidth=1;shadow=0;" parent="WIyWlLk6GJQsqaUBKTNV-1" vertex="1">
          <mxGeometry x="360" y="240" width="120" height="40" as="geometry" />
        </mxCell>
        <mxCell id="nvOmrR5GIjtlNtDzd1EA-13" value="" style="edgeStyle=orthogonalEdgeStyle;rounded=0;html=1;jettySize=auto;orthogonalLoop=1;fontSize=11;endArrow=block;endFill=0;endSize=8;strokeWidth=1;shadow=0;labelBackgroundColor=none;" parent="WIyWlLk6GJQsqaUBKTNV-1" source="nvOmrR5GIjtlNtDzd1EA-14" target="nvOmrR5GIjtlNtDzd1EA-15" edge="1">
          <mxGeometry y="10" relative="1" as="geometry">
            <mxPoint as="offset" />
          </mxGeometry>
        </mxCell>
        <mxCell id="nvOmrR5GIjtlNtDzd1EA-18" value="" style="edgeStyle=orthogonalEdgeStyle;rounded=0;orthogonalLoop=1;jettySize=auto;html=1;" parent="WIyWlLk6GJQsqaUBKTNV-1" source="nvOmrR5GIjtlNtDzd1EA-16" edge="1">
          <mxGeometry relative="1" as="geometry">
            <mxPoint x="420" y="120" as="targetPoint" />
            <Array as="points">
              <mxPoint x="430" y="100" />
              <mxPoint x="420" y="100" />
            </Array>
          </mxGeometry>
        </mxCell>
        <mxCell id="nvOmrR5GIjtlNtDzd1EA-16" value="INPUT" style="rounded=1;whiteSpace=wrap;html=1;fontSize=12;glass=0;strokeWidth=1;shadow=0;" parent="WIyWlLk6GJQsqaUBKTNV-1" vertex="1">
          <mxGeometry x="370" y="30" width="120" height="40" as="geometry" />
        </mxCell>
        <mxCell id="nvOmrR5GIjtlNtDzd1EA-20" value="" style="edgeStyle=orthogonalEdgeStyle;rounded=0;orthogonalLoop=1;jettySize=auto;html=1;" parent="WIyWlLk6GJQsqaUBKTNV-1" source="nvOmrR5GIjtlNtDzd1EA-19" edge="1">
          <mxGeometry relative="1" as="geometry">
            <mxPoint x="420" y="120" as="targetPoint" />
          </mxGeometry>
        </mxCell>
        <mxCell id="nvOmrR5GIjtlNtDzd1EA-19" value="INPUT" style="rounded=1;whiteSpace=wrap;html=1;fontSize=12;glass=0;strokeWidth=1;shadow=0;" parent="WIyWlLk6GJQsqaUBKTNV-1" vertex="1">
          <mxGeometry x="380" y="40" width="120" height="40" as="geometry" />
        </mxCell>
        <mxCell id="nvOmrR5GIjtlNtDzd1EA-23" value="INPUT" style="rounded=1;whiteSpace=wrap;html=1;fontSize=12;glass=0;strokeWidth=1;shadow=0;" parent="WIyWlLk6GJQsqaUBKTNV-1" vertex="1">
          <mxGeometry x="540" y="40" width="120" height="40" as="geometry" />
        </mxCell>
        <mxCell id="nvOmrR5GIjtlNtDzd1EA-25" value="Processing" style="rhombus;whiteSpace=wrap;html=1;shadow=0;fontFamily=Helvetica;fontSize=12;align=center;strokeWidth=1;spacing=6;spacingTop=-4;" parent="WIyWlLk6GJQsqaUBKTNV-1" vertex="1">
          <mxGeometry x="550" y="120" width="100" height="80" as="geometry" />
        </mxCell>
        <mxCell id="nvOmrR5GIjtlNtDzd1EA-22" value="" style="rounded=0;html=1;jettySize=auto;orthogonalLoop=1;fontSize=11;endArrow=block;endFill=0;endSize=8;strokeWidth=1;shadow=0;labelBackgroundColor=none;edgeStyle=orthogonalEdgeStyle;" parent="WIyWlLk6GJQsqaUBKTNV-1" source="nvOmrR5GIjtlNtDzd1EA-23" target="nvOmrR5GIjtlNtDzd1EA-25" edge="1">
          <mxGeometry relative="1" as="geometry" />
        </mxCell>
        <mxCell id="nvOmrR5GIjtlNtDzd1EA-26" value="OUTPUT" style="rounded=1;whiteSpace=wrap;html=1;fontSize=12;glass=0;strokeWidth=1;shadow=0;" parent="WIyWlLk6GJQsqaUBKTNV-1" vertex="1">
          <mxGeometry x="540" y="240" width="120" height="40" as="geometry" />
        </mxCell>
        <mxCell id="nvOmrR5GIjtlNtDzd1EA-30" style="edgeStyle=orthogonalEdgeStyle;rounded=0;orthogonalLoop=1;jettySize=auto;html=1;exitX=0.5;exitY=1;exitDx=0;exitDy=0;entryX=0.5;entryY=0;entryDx=0;entryDy=0;" parent="WIyWlLk6GJQsqaUBKTNV-1" source="nvOmrR5GIjtlNtDzd1EA-25" target="nvOmrR5GIjtlNtDzd1EA-26" edge="1">
          <mxGeometry relative="1" as="geometry" />
        </mxCell>
        <mxCell id="nvOmrR5GIjtlNtDzd1EA-27" value="OUTPUT" style="rounded=1;whiteSpace=wrap;html=1;fontSize=12;glass=0;strokeWidth=1;shadow=0;" parent="WIyWlLk6GJQsqaUBKTNV-1" vertex="1">
          <mxGeometry x="550" y="250" width="120" height="40" as="geometry" />
        </mxCell>
        <mxCell id="nvOmrR5GIjtlNtDzd1EA-29" value="" style="edgeStyle=orthogonalEdgeStyle;rounded=0;orthogonalLoop=1;jettySize=auto;html=1;" parent="WIyWlLk6GJQsqaUBKTNV-1" source="nvOmrR5GIjtlNtDzd1EA-25" target="nvOmrR5GIjtlNtDzd1EA-28" edge="1">
          <mxGeometry relative="1" as="geometry" />
        </mxCell>
        <mxCell id="nvOmrR5GIjtlNtDzd1EA-28" value="OUTPUT" style="rounded=1;whiteSpace=wrap;html=1;fontSize=12;glass=0;strokeWidth=1;shadow=0;" parent="WIyWlLk6GJQsqaUBKTNV-1" vertex="1">
          <mxGeometry x="560" y="260" width="120" height="40" as="geometry" />
        </mxCell>
        <mxCell id="nvOmrR5GIjtlNtDzd1EA-31" style="edgeStyle=orthogonalEdgeStyle;rounded=0;orthogonalLoop=1;jettySize=auto;html=1;exitX=0.5;exitY=1;exitDx=0;exitDy=0;entryX=0.5;entryY=0;entryDx=0;entryDy=0;" parent="WIyWlLk6GJQsqaUBKTNV-1" source="nvOmrR5GIjtlNtDzd1EA-25" target="nvOmrR5GIjtlNtDzd1EA-27" edge="1">
          <mxGeometry relative="1" as="geometry" />
        </mxCell>
        <mxCell id="nvOmrR5GIjtlNtDzd1EA-35" value="Processing" style="rhombus;whiteSpace=wrap;html=1;shadow=0;fontFamily=Helvetica;fontSize=12;align=center;strokeWidth=1;spacing=6;spacingTop=-4;" parent="WIyWlLk6GJQsqaUBKTNV-1" vertex="1">
          <mxGeometry x="730" y="120" width="100" height="80" as="geometry" />
        </mxCell>
        <mxCell id="nvOmrR5GIjtlNtDzd1EA-36" value="OUTPUT" style="rounded=1;whiteSpace=wrap;html=1;fontSize=12;glass=0;strokeWidth=1;shadow=0;" parent="WIyWlLk6GJQsqaUBKTNV-1" vertex="1">
          <mxGeometry x="720" y="240" width="120" height="40" as="geometry" />
        </mxCell>
        <mxCell id="nvOmrR5GIjtlNtDzd1EA-34" style="edgeStyle=orthogonalEdgeStyle;rounded=0;orthogonalLoop=1;jettySize=auto;html=1;exitX=0.5;exitY=1;exitDx=0;exitDy=0;entryX=0.5;entryY=0;entryDx=0;entryDy=0;" parent="WIyWlLk6GJQsqaUBKTNV-1" source="nvOmrR5GIjtlNtDzd1EA-35" target="nvOmrR5GIjtlNtDzd1EA-36" edge="1">
          <mxGeometry relative="1" as="geometry" />
        </mxCell>
        <mxCell id="nvOmrR5GIjtlNtDzd1EA-37" value="OUTPUT" style="rounded=1;whiteSpace=wrap;html=1;fontSize=12;glass=0;strokeWidth=1;shadow=0;" parent="WIyWlLk6GJQsqaUBKTNV-1" vertex="1">
          <mxGeometry x="730" y="250" width="120" height="40" as="geometry" />
        </mxCell>
        <mxCell id="nvOmrR5GIjtlNtDzd1EA-38" value="" style="edgeStyle=orthogonalEdgeStyle;rounded=0;orthogonalLoop=1;jettySize=auto;html=1;" parent="WIyWlLk6GJQsqaUBKTNV-1" source="nvOmrR5GIjtlNtDzd1EA-35" target="nvOmrR5GIjtlNtDzd1EA-39" edge="1">
          <mxGeometry relative="1" as="geometry" />
        </mxCell>
        <mxCell id="nvOmrR5GIjtlNtDzd1EA-39" value="OUTPUT" style="rounded=1;whiteSpace=wrap;html=1;fontSize=12;glass=0;strokeWidth=1;shadow=0;" parent="WIyWlLk6GJQsqaUBKTNV-1" vertex="1">
          <mxGeometry x="740" y="260" width="120" height="40" as="geometry" />
        </mxCell>
        <mxCell id="nvOmrR5GIjtlNtDzd1EA-40" style="edgeStyle=orthogonalEdgeStyle;rounded=0;orthogonalLoop=1;jettySize=auto;html=1;exitX=0.5;exitY=1;exitDx=0;exitDy=0;entryX=0.5;entryY=0;entryDx=0;entryDy=0;" parent="WIyWlLk6GJQsqaUBKTNV-1" source="nvOmrR5GIjtlNtDzd1EA-35" target="nvOmrR5GIjtlNtDzd1EA-37" edge="1">
          <mxGeometry relative="1" as="geometry" />
        </mxCell>
        <mxCell id="nvOmrR5GIjtlNtDzd1EA-41" value="" style="rounded=0;html=1;jettySize=auto;orthogonalLoop=1;fontSize=11;endArrow=block;endFill=0;endSize=8;strokeWidth=1;shadow=0;labelBackgroundColor=none;edgeStyle=orthogonalEdgeStyle;" parent="WIyWlLk6GJQsqaUBKTNV-1" source="nvOmrR5GIjtlNtDzd1EA-42" edge="1">
          <mxGeometry relative="1" as="geometry">
            <mxPoint x="780" y="120" as="targetPoint" />
          </mxGeometry>
        </mxCell>
        <mxCell id="nvOmrR5GIjtlNtDzd1EA-42" value="INPUT" style="rounded=1;whiteSpace=wrap;html=1;fontSize=12;glass=0;strokeWidth=1;shadow=0;" parent="WIyWlLk6GJQsqaUBKTNV-1" vertex="1">
          <mxGeometry x="720" y="20" width="120" height="40" as="geometry" />
        </mxCell>
        <mxCell id="nvOmrR5GIjtlNtDzd1EA-43" value="" style="edgeStyle=orthogonalEdgeStyle;rounded=0;orthogonalLoop=1;jettySize=auto;html=1;" parent="WIyWlLk6GJQsqaUBKTNV-1" source="nvOmrR5GIjtlNtDzd1EA-44" edge="1">
          <mxGeometry relative="1" as="geometry">
            <mxPoint x="780" y="120" as="targetPoint" />
            <Array as="points">
              <mxPoint x="790" y="100" />
              <mxPoint x="780" y="100" />
            </Array>
          </mxGeometry>
        </mxCell>
        <mxCell id="nvOmrR5GIjtlNtDzd1EA-44" value="INPUT" style="rounded=1;whiteSpace=wrap;html=1;fontSize=12;glass=0;strokeWidth=1;shadow=0;" parent="WIyWlLk6GJQsqaUBKTNV-1" vertex="1">
          <mxGeometry x="730" y="30" width="120" height="40" as="geometry" />
        </mxCell>
        <mxCell id="nvOmrR5GIjtlNtDzd1EA-45" value="" style="edgeStyle=orthogonalEdgeStyle;rounded=0;orthogonalLoop=1;jettySize=auto;html=1;" parent="WIyWlLk6GJQsqaUBKTNV-1" source="nvOmrR5GIjtlNtDzd1EA-46" edge="1">
          <mxGeometry relative="1" as="geometry">
            <mxPoint x="780" y="120" as="targetPoint" />
          </mxGeometry>
        </mxCell>
        <mxCell id="nvOmrR5GIjtlNtDzd1EA-46" value="INPUT" style="rounded=1;whiteSpace=wrap;html=1;fontSize=12;glass=0;strokeWidth=1;shadow=0;" parent="WIyWlLk6GJQsqaUBKTNV-1" vertex="1">
          <mxGeometry x="740" y="40" width="120" height="40" as="geometry" />
        </mxCell>
        <mxCell id="iapUq97GHPyjZ0MM7p6k-41" value="" style="edgeStyle=orthogonalEdgeStyle;rounded=0;orthogonalLoop=1;jettySize=auto;html=1;" edge="1" parent="WIyWlLk6GJQsqaUBKTNV-1" target="iapUq97GHPyjZ0MM7p6k-4">
          <mxGeometry relative="1" as="geometry">
            <mxPoint x="240" y="1690" as="sourcePoint" />
            <Array as="points">
              <mxPoint x="240" y="1698" />
            </Array>
          </mxGeometry>
        </mxCell>
        <mxCell id="iapUq97GHPyjZ0MM7p6k-1" value="Datasets" style="swimlane;" vertex="1" parent="WIyWlLk6GJQsqaUBKTNV-1">
          <mxGeometry x="40" y="1600" width="200" height="200" as="geometry" />
        </mxCell>
        <mxCell id="iapUq97GHPyjZ0MM7p6k-12" style="edgeStyle=orthogonalEdgeStyle;rounded=0;orthogonalLoop=1;jettySize=auto;html=1;entryX=0;entryY=0.5;entryDx=0;entryDy=0;" edge="1" parent="WIyWlLk6GJQsqaUBKTNV-1" source="iapUq97GHPyjZ0MM7p6k-2" target="iapUq97GHPyjZ0MM7p6k-7">
          <mxGeometry relative="1" as="geometry" />
        </mxCell>
        <mxCell id="iapUq97GHPyjZ0MM7p6k-2" value="Cacher (to RAM)" style="shape=parallelogram;perimeter=parallelogramPerimeter;whiteSpace=wrap;html=1;fixedSize=1;" vertex="1" parent="WIyWlLk6GJQsqaUBKTNV-1">
          <mxGeometry x="460.01" y="1667.5" width="120" height="60" as="geometry" />
        </mxCell>
        <mxCell id="iapUq97GHPyjZ0MM7p6k-6" style="edgeStyle=orthogonalEdgeStyle;rounded=0;orthogonalLoop=1;jettySize=auto;html=1;entryX=0;entryY=0.5;entryDx=0;entryDy=0;" edge="1" parent="WIyWlLk6GJQsqaUBKTNV-1" source="iapUq97GHPyjZ0MM7p6k-4" target="iapUq97GHPyjZ0MM7p6k-2">
          <mxGeometry relative="1" as="geometry" />
        </mxCell>
        <mxCell id="iapUq97GHPyjZ0MM7p6k-4" value="Dataset a" style="shape=note;whiteSpace=wrap;html=1;backgroundOutline=1;darkOpacity=0.05;" vertex="1" parent="WIyWlLk6GJQsqaUBKTNV-1">
          <mxGeometry x="310" y="1647.5" width="80" height="100" as="geometry" />
        </mxCell>
        <mxCell id="iapUq97GHPyjZ0MM7p6k-16" style="edgeStyle=orthogonalEdgeStyle;rounded=0;orthogonalLoop=1;jettySize=auto;html=1;" edge="1" parent="WIyWlLk6GJQsqaUBKTNV-1" source="iapUq97GHPyjZ0MM7p6k-7" target="iapUq97GHPyjZ0MM7p6k-15">
          <mxGeometry relative="1" as="geometry" />
        </mxCell>
        <mxCell id="iapUq97GHPyjZ0MM7p6k-39" style="edgeStyle=orthogonalEdgeStyle;rounded=0;orthogonalLoop=1;jettySize=auto;html=1;" edge="1" parent="WIyWlLk6GJQsqaUBKTNV-1" source="iapUq97GHPyjZ0MM7p6k-7" target="iapUq97GHPyjZ0MM7p6k-33">
          <mxGeometry relative="1" as="geometry">
            <Array as="points">
              <mxPoint x="670" y="2012.5" />
            </Array>
          </mxGeometry>
        </mxCell>
        <mxCell id="iapUq97GHPyjZ0MM7p6k-7" value="Has been cached?" style="rhombus;whiteSpace=wrap;html=1;" vertex="1" parent="WIyWlLk6GJQsqaUBKTNV-1">
          <mxGeometry x="630" y="1657.5" width="80" height="80" as="geometry" />
        </mxCell>
        <mxCell id="iapUq97GHPyjZ0MM7p6k-8" value="Yes" style="text;html=1;strokeColor=none;fillColor=none;align=center;verticalAlign=middle;whiteSpace=wrap;rounded=0;" vertex="1" parent="WIyWlLk6GJQsqaUBKTNV-1">
          <mxGeometry x="720" y="1657.5" width="60" height="30" as="geometry" />
        </mxCell>
        <mxCell id="iapUq97GHPyjZ0MM7p6k-9" value="No" style="text;html=1;strokeColor=none;fillColor=none;align=center;verticalAlign=middle;whiteSpace=wrap;rounded=0;" vertex="1" parent="WIyWlLk6GJQsqaUBKTNV-1">
          <mxGeometry x="720" y="1977.5" width="60" height="30" as="geometry" />
        </mxCell>
        <mxCell id="iapUq97GHPyjZ0MM7p6k-15" value="" style="ellipse;shape=cloud;whiteSpace=wrap;html=1;aspect=fixed;" vertex="1" parent="WIyWlLk6GJQsqaUBKTNV-1">
          <mxGeometry x="780" y="1540" width="600" height="315" as="geometry" />
        </mxCell>
        <mxCell id="iapUq97GHPyjZ0MM7p6k-32" value="" style="edgeStyle=orthogonalEdgeStyle;rounded=0;orthogonalLoop=1;jettySize=auto;html=1;" edge="1" parent="WIyWlLk6GJQsqaUBKTNV-1" source="iapUq97GHPyjZ0MM7p6k-0" target="iapUq97GHPyjZ0MM7p6k-30">
          <mxGeometry relative="1" as="geometry" />
        </mxCell>
        <mxCell id="iapUq97GHPyjZ0MM7p6k-0" value="Processing" style="rhombus;whiteSpace=wrap;html=1;" vertex="1" parent="WIyWlLk6GJQsqaUBKTNV-1">
          <mxGeometry x="1050" y="1657.5" width="80" height="80" as="geometry" />
        </mxCell>
        <mxCell id="iapUq97GHPyjZ0MM7p6k-24" style="edgeStyle=orthogonalEdgeStyle;rounded=0;orthogonalLoop=1;jettySize=auto;html=1;entryX=0;entryY=0.5;entryDx=0;entryDy=0;" edge="1" parent="WIyWlLk6GJQsqaUBKTNV-1" source="iapUq97GHPyjZ0MM7p6k-23" target="iapUq97GHPyjZ0MM7p6k-0">
          <mxGeometry relative="1" as="geometry" />
        </mxCell>
        <mxCell id="iapUq97GHPyjZ0MM7p6k-23" value="Dataset a&lt;br&gt;from RAM" style="shape=note;whiteSpace=wrap;html=1;backgroundOutline=1;darkOpacity=0.05;" vertex="1" parent="WIyWlLk6GJQsqaUBKTNV-1">
          <mxGeometry x="910" y="1647.5" width="80" height="100" as="geometry" />
        </mxCell>
        <mxCell id="iapUq97GHPyjZ0MM7p6k-30" value="Delete from&lt;br&gt; RAM" style="shape=step;perimeter=stepPerimeter;whiteSpace=wrap;html=1;fixedSize=1;" vertex="1" parent="WIyWlLk6GJQsqaUBKTNV-1">
          <mxGeometry x="1180" y="1662.5" width="100" height="70" as="geometry" />
        </mxCell>
        <mxCell id="iapUq97GHPyjZ0MM7p6k-33" value="" style="ellipse;shape=cloud;whiteSpace=wrap;html=1;aspect=fixed;" vertex="1" parent="WIyWlLk6GJQsqaUBKTNV-1">
          <mxGeometry x="790" y="1855" width="600" height="315" as="geometry" />
        </mxCell>
        <mxCell id="iapUq97GHPyjZ0MM7p6k-35" value="Processing" style="rhombus;whiteSpace=wrap;html=1;" vertex="1" parent="WIyWlLk6GJQsqaUBKTNV-1">
          <mxGeometry x="1110" y="1927.5" width="80" height="80" as="geometry" />
        </mxCell>
        <mxCell id="iapUq97GHPyjZ0MM7p6k-36" style="edgeStyle=orthogonalEdgeStyle;rounded=0;orthogonalLoop=1;jettySize=auto;html=1;entryX=0;entryY=0.5;entryDx=0;entryDy=0;" edge="1" parent="WIyWlLk6GJQsqaUBKTNV-1" source="iapUq97GHPyjZ0MM7p6k-37" target="iapUq97GHPyjZ0MM7p6k-35">
          <mxGeometry relative="1" as="geometry" />
        </mxCell>
        <mxCell id="iapUq97GHPyjZ0MM7p6k-40" style="edgeStyle=orthogonalEdgeStyle;rounded=0;orthogonalLoop=1;jettySize=auto;html=1;entryX=0;entryY=0.5;entryDx=0;entryDy=0;" edge="1" parent="WIyWlLk6GJQsqaUBKTNV-1" source="iapUq97GHPyjZ0MM7p6k-37" target="iapUq97GHPyjZ0MM7p6k-38">
          <mxGeometry relative="1" as="geometry" />
        </mxCell>
        <mxCell id="iapUq97GHPyjZ0MM7p6k-37" value="Dataset a&lt;br&gt;from disk" style="shape=note;whiteSpace=wrap;html=1;backgroundOutline=1;darkOpacity=0.05;" vertex="1" parent="WIyWlLk6GJQsqaUBKTNV-1">
          <mxGeometry x="920" y="1962.5" width="80" height="100" as="geometry" />
        </mxCell>
        <mxCell id="iapUq97GHPyjZ0MM7p6k-38" value="Abort &lt;br&gt;caching" style="shape=step;perimeter=stepPerimeter;whiteSpace=wrap;html=1;fixedSize=1;" vertex="1" parent="WIyWlLk6GJQsqaUBKTNV-1">
          <mxGeometry x="1110" y="2027.5" width="100" height="70" as="geometry" />
        </mxCell>
      </root>
    </mxGraphModel>
  </diagram>
</mxfile>
